<?xml version="1.0" encoding="UTF-8" standalone="no"?>
<!-- Created with Inkscape (http://www.inkscape.org/) -->
<svg
   xmlns:dc="http://purl.org/dc/elements/1.1/"
   xmlns:cc="http://creativecommons.org/ns#"
   xmlns:rdf="http://www.w3.org/1999/02/22-rdf-syntax-ns#"
   xmlns:svg="http://www.w3.org/2000/svg"
   xmlns="http://www.w3.org/2000/svg"
   xmlns:sodipodi="http://sodipodi.sourceforge.net/DTD/sodipodi-0.dtd"
   xmlns:inkscape="http://www.inkscape.org/namespaces/inkscape"
   version="1.0"
   width="76.25"
   height="50"
   id="svg2"
   sodipodi:version="0.32"
   inkscape:version="0.46"
   sodipodi:docname="and.svg"
   inkscape:output_extension="org.inkscape.output.svg.inkscape">
  <metadata
     id="metadata10">
    <rdf:RDF>
      <cc:Work
         rdf:about="">
        <dc:format>image/svg+xml</dc:format>
        <dc:type
           rdf:resource="http://purl.org/dc/dcmitype/StillImage" />
      </cc:Work>
    </rdf:RDF>
  </metadata>
  <sodipodi:namedview
     inkscape:window-height="722"
     inkscape:window-width="676"
     inkscape:pageshadow="2"
     inkscape:pageopacity="0.0"
     guidetolerance="10.0"
     gridtolerance="10.0"
     objecttolerance="10.0"
     borderopacity="1.0"
     bordercolor="#666666"
     pagecolor="#ffffff"
     id="base"
     showgrid="false"
     inkscape:zoom="4.4344262"
     inkscape:cx="99.22366"
     inkscape:cy="40"
     inkscape:window-x="-5"
     inkscape:window-y="0"
     inkscape:current-layer="svg2" />
  <defs
     id="defs4">
    <inkscape:perspective
       sodipodi:type="inkscape:persp3d"
       inkscape:vp_x="0 : 40 : 1"
       inkscape:vp_y="0 : 1000 : 0"
       inkscape:vp_z="122 : 40 : 1"
       inkscape:persp3d-origin="61 : 26.666667 : 1"
       id="perspective12" />
  </defs>
  <g
     transform="matrix(0.625,0,0,0.625,-11.875,-3.125)"
     id="layer1">
    <path
       d="M 121,45 C 135,45 139,45 139,45"
       id="path3059"
       style="fill:none;stroke:#000000;stroke-width:4;stroke-linecap:butt;stroke-linejoin:miter;stroke-opacity:1" />
    <path
       d="M 43,25 L 21,25"
       id="path3061"
       style="fill:none;stroke:#000000;stroke-width:4;stroke-linecap:butt;stroke-linejoin:miter;stroke-opacity:1" />
    <path
       d="M 45,65 L 21,65"
       id="path3944"
       style="fill:none;stroke:#000000;stroke-width:3.99999976;stroke-linecap:butt;stroke-linejoin:miter;stroke-opacity:1" />
    <path
       d="M 41,5 L 41,7.8571428 L 41,82.142858 L 41,85 L 43.857142,85 L 81.95238,85 C 104.4882,85 121.95238,66.99991 121.95238,45 C 121.95238,23.00009 104.4882,5.0000004 81.95238,5 C 81.95238,5 81.95238,5 43.857142,5 L 41,5 z M 46.714286,10.714286 C 62.668528,10.714286 72.836736,10.714286 77.190476,10.714286 C 79.571428,10.714286 80.761904,10.714286 81.357142,10.714286 C 81.654762,10.714286 81.818454,10.714286 81.892858,10.714286 C 81.930058,10.714286 81.943086,10.714286 81.95238,10.714286 C 101.47371,10.714286 115.28571,25.994196 115.28571,45 C 115.28571,64.005804 100.52132,79.285714 81,79.285714 L 46.714286,79.285714 L 46.714286,10.714286 z"
       id="path2884"
       style="font-size:medium;font-style:normal;font-variant:normal;font-weight:normal;font-stretch:normal;text-indent:0;text-align:start;text-decoration:none;line-height:normal;letter-spacing:normal;word-spacing:normal;text-transform:none;direction:ltr;block-progression:tb;writing-mode:lr-tb;text-anchor:start;fill:#000000;fill-opacity:1;stroke:none;stroke-width:3;marker:none;visibility:visible;display:inline;overflow:visible;enable-background:accumulate;font-family:Bitstream Vera Sans;-inkscape-font-specification:Bitstream Vera Sans" />
  </g>
</svg>
