<?xml version="1.0" encoding="UTF-8" standalone="no"?>
<!-- Created with Inkscape (http://www.inkscape.org/) -->
<svg
   xmlns:svg="http://www.w3.org/2000/svg"
   xmlns="http://www.w3.org/2000/svg"
   version="1.0"
   width="150"
   height="89"
   id="svg2">
  <defs
     id="defs4" />
  <g
     transform="translate(-16,-2.59375)"
     id="layer1">
    <path
       d="M 142.31859,47.150179 L 164.00678,47.150179"
       id="path3059"
       style="fill:none;stroke:#000000;stroke-width:3.98842907;stroke-linecap:butt;stroke-linejoin:miter;stroke-opacity:1" />
    <path
       d="M 42.082413,47.150179 L 17.99322,47.150179"
       id="path3061"
       style="fill:none;stroke:#000000;stroke-width:3.98842931;stroke-linecap:butt;stroke-linejoin:miter;stroke-opacity:1" />
    <path
       d="M 41.932943,2.6006955 L 41.932943,7.3849496 L 41.932943,86.915408 L 41.932943,91.699662 L 46.245843,89.587134 L 128.31597,49.821905 L 128.31597,44.478452 L 46.245843,4.7132232 L 41.932943,2.6006955 z M 47.9335,12.169204 L 120.19021,47.150179 L 47.9335,82.131153 L 47.9335,12.169204 z"
       id="path2638"
       style="fill:#000000;fill-opacity:1;stroke:none;stroke-width:3;stroke-linejoin:miter;marker:none;stroke-opacity:1;visibility:visible;display:inline;overflow:visible;enable-background:accumulate" />
    <path
       d="M 80,25 A 4,4 0 1 1 72,25 A 4,4 0 1 1 80,25 z"
       transform="matrix(2.0001858,0,0,1.9882615,-18.010124,-2.5563577)"
       id="path2671"
       style="fill:none;fill-opacity:1;stroke:#000000;stroke-width:3;stroke-linejoin:miter;marker:none;stroke-opacity:1;visibility:visible;display:inline;overflow:visible;enable-background:accumulate" />
  </g>
</svg>
