<?xml version="1.0" encoding="UTF-8" standalone="no"?>
<!-- Created with Inkscape (http://www.inkscape.org/) -->
<svg
   xmlns:svg="http://www.w3.org/2000/svg"
   xmlns="http://www.w3.org/2000/svg"
   version="1.0"
   width="146.2"
   height="80"
   id="svg2">
  <defs
     id="defs4" />
  <g
     transform="translate(-18,-5)"
     id="layer1">
    <path
       d="M 140,45 C 165.6,45 162,45 162,45"
       id="path3059"
       style="fill:none;stroke:#000000;stroke-width:4;stroke-linecap:butt;stroke-linejoin:miter;stroke-opacity:1" />
    <path
       d="M 44,25 L 20,25"
       id="path3061"
       style="fill:none;stroke:#000000;stroke-width:4;stroke-linecap:butt;stroke-linejoin:miter;stroke-opacity:1" />
    <path
       d="M 46,65 L 20,65"
       id="path3944"
       style="fill:none;stroke:#000000;stroke-width:3.99999976;stroke-linecap:butt;stroke-linejoin:miter;stroke-opacity:1" />
    <path
       d="M 42,5 L 42,7.8571428 L 42,82.142858 L 42,85 L 44.857142,85 L 82.95238,85 C 105.4882,85 122.95238,66.99991 122.95238,45 C 122.95238,23.00009 105.4882,5.0000004 82.95238,5 C 82.95238,5 82.95238,5 44.857142,5 L 42,5 z M 47.714286,10.714286 C 63.668528,10.714286 73.836736,10.714286 78.190476,10.714286 C 80.571428,10.714286 81.761904,10.714286 82.357142,10.714286 C 82.654762,10.714286 82.818454,10.714286 82.892858,10.714286 C 82.930058,10.714286 82.943086,10.714286 82.95238,10.714286 C 102.47371,10.714286 116.28571,25.994196 116.28571,45 C 116.28571,64.005804 101.52132,79.285714 82,79.285714 L 47.714286,79.285714 L 47.714286,10.714286 z"
       id="path2884"
       style="font-size:medium;font-style:normal;font-variant:normal;font-weight:normal;font-stretch:normal;text-indent:0;text-align:start;text-decoration:none;line-height:normal;letter-spacing:normal;word-spacing:normal;text-transform:none;direction:ltr;block-progression:tb;writing-mode:lr-tb;text-anchor:start;fill:#000000;fill-opacity:1;stroke:none;stroke-width:3;marker:none;visibility:visible;display:inline;overflow:visible;enable-background:accumulate;font-family:Bitstream Vera Sans;-inkscape-font-specification:Bitstream Vera Sans" />
    <path
       d="M 79,25 A 4,4 0 1 1 71,25 A 4,4 0 1 1 79,25 z"
       transform="matrix(2,0,0,2,-18,-5)"
       id="path4008"
       style="fill:none;fill-opacity:1;stroke:#000000;stroke-width:3;stroke-linejoin:miter;marker:none;stroke-opacity:1;visibility:visible;display:inline;overflow:visible;enable-background:accumulate" />
  </g>
</svg>
