<?xml version="1.0" encoding="UTF-8" standalone="no"?>
<!-- Created with Inkscape (http://www.inkscape.org/) -->
<svg
   xmlns:dc="http://purl.org/dc/elements/1.1/"
   xmlns:cc="http://creativecommons.org/ns#"
   xmlns:rdf="http://www.w3.org/1999/02/22-rdf-syntax-ns#"
   xmlns:svg="http://www.w3.org/2000/svg"
   xmlns="http://www.w3.org/2000/svg"
   xmlns:sodipodi="http://sodipodi.sourceforge.net/DTD/sodipodi-0.dtd"
   xmlns:inkscape="http://www.inkscape.org/namespaces/inkscape"
   width="174.25029"
   height="102.49999"
   id="svg2878"
   sodipodi:version="0.32"
   inkscape:version="0.46"
   version="1.0"
   sodipodi:docname="latch.svg"
   inkscape:output_extension="org.inkscape.output.svg.inkscape">
  <defs
     id="defs2880">
    <inkscape:perspective
       sodipodi:type="inkscape:persp3d"
       inkscape:vp_x="0 : 526.18109 : 1"
       inkscape:vp_y="0 : 1000 : 0"
       inkscape:vp_z="744.09448 : 526.18109 : 1"
       inkscape:persp3d-origin="372.04724 : 350.78739 : 1"
       id="perspective2886" />
  </defs>
  <sodipodi:namedview
     id="base"
     pagecolor="#ffffff"
     bordercolor="#666666"
     borderopacity="1.0"
     gridtolerance="10000"
     guidetolerance="10"
     objecttolerance="10"
     inkscape:pageopacity="0.0"
     inkscape:pageshadow="2"
     inkscape:zoom="2.8"
     inkscape:cx="113.21108"
     inkscape:cy="39.012147"
     inkscape:document-units="px"
     inkscape:current-layer="layer1"
     showgrid="false"
     inkscape:window-width="780"
     inkscape:window-height="741"
     inkscape:window-x="490"
     inkscape:window-y="0" />
  <metadata
     id="metadata2883">
    <rdf:RDF>
      <cc:Work
         rdf:about="">
        <dc:format>image/svg+xml</dc:format>
        <dc:type
           rdf:resource="http://purl.org/dc/dcmitype/StillImage" />
      </cc:Work>
    </rdf:RDF>
  </metadata>
  <g
     inkscape:label="Layer 1"
     inkscape:groupmode="layer"
     id="layer1"
     transform="translate(-25.839,-9.683611)">
    <path
       id="path131"
       style="fill:none;stroke:#000000;stroke-width:1.25;stroke-linecap:butt;stroke-linejoin:miter;stroke-miterlimit:10;stroke-dasharray:none;stroke-opacity:1"
       d="M 56.964286,96.558611 L 100.71429,96.558611" />
    <path
       id="path133"
       style="fill:none;stroke:#000000;stroke-width:1.25;stroke-linecap:butt;stroke-linejoin:miter;stroke-miterlimit:10;stroke-dasharray:none;stroke-opacity:1"
       d="M 55.714286,34.058611 L 104.46429,34.058611" />
    <path
       id="path135"
       style="fill:none;stroke:#000000;stroke-width:1.25;stroke-linecap:butt;stroke-linejoin:miter;stroke-miterlimit:10;stroke-dasharray:none;stroke-opacity:1"
       d="M 150.71429,91.558611 L 150.71429,72.808611 L 98.214286,72.808611 L 98.214286,40.308611 L 104.46429,40.308611" />
    <path
       id="path137"
       style="fill:none;stroke:#000000;stroke-width:1.25;stroke-linecap:butt;stroke-linejoin:miter;stroke-miterlimit:10;stroke-dasharray:none;stroke-opacity:1"
       d="M 153.21429,94.058611 L 193.21429,94.058611 L 193.21429,84.058611" />
    <path
       id="path139"
       style="fill:none;stroke:#000000;stroke-width:1.25;stroke-linecap:butt;stroke-linejoin:miter;stroke-miterlimit:10;stroke-dasharray:none;stroke-opacity:1"
       d="M 148.21429,40.308611 L 148.21429,56.558611 L 86.964286,56.558611 L 86.964286,90.308611 L 100.71429,90.308611" />
    <path
       id="path141"
       style="fill:none;stroke:#000000;stroke-width:1.25;stroke-linecap:butt;stroke-linejoin:miter;stroke-miterlimit:10;stroke-dasharray:none;stroke-opacity:1"
       d="M 150.71429,37.808611 L 193.21429,37.808611 L 193.21429,25.308611" />
    <path
       id="path143"
       style="fill:#ffffff;fill-opacity:1;fill-rule:nonzero;stroke:none"
       d="M 131.96429,94.058611 C 131.96429,92.678611 130.84429,91.558611 129.46429,91.558611 C 128.08429,91.558611 126.96429,92.678611 126.96429,94.058611 C 126.96429,95.438611 128.08429,96.558611 129.46429,96.558611 C 130.84429,96.558611 131.96429,95.438611 131.96429,94.058611" />
    <path
       id="path145"
       style="fill:none;stroke:#000000;stroke-width:1.25;stroke-linecap:butt;stroke-linejoin:miter;stroke-miterlimit:10;stroke-dasharray:none;stroke-opacity:1"
       d="M 131.96429,94.058611 C 131.96429,92.678611 130.84429,91.558611 129.46429,91.558611 C 128.08429,91.558611 126.96429,92.678611 126.96429,94.058611 C 126.96429,95.438611 128.08429,96.558611 129.46429,96.558611 C 130.84429,96.558611 131.96429,95.438611 131.96429,94.058611" />
    <path
       id="path147"
       style="fill:none;stroke:#000000;stroke-width:1.25;stroke-linecap:butt;stroke-linejoin:miter;stroke-miterlimit:10;stroke-dasharray:none;stroke-opacity:1"
       d="M 131.96429,94.058611 L 148.21429,94.058611" />
    <path
       id="path149"
       style="fill:#ffffff;fill-opacity:1;fill-rule:nonzero;stroke:none"
       d="M 135.71429,37.808611 C 135.71429,36.428611 134.59429,35.308611 133.21429,35.308611 C 131.83429,35.308611 130.71429,36.428611 130.71429,37.808611 C 130.71429,39.188611 131.83429,40.308611 133.21429,40.308611 C 134.59429,40.308611 135.71429,39.188611 135.71429,37.808611" />
    <path
       id="path151"
       style="fill:none;stroke:#000000;stroke-width:1.25;stroke-linecap:butt;stroke-linejoin:miter;stroke-miterlimit:10;stroke-dasharray:none;stroke-opacity:1"
       d="M 135.71429,37.808611 C 135.71429,36.428611 134.59429,35.308611 133.21429,35.308611 C 131.83429,35.308611 130.71429,36.428611 130.71429,37.808611 C 130.71429,39.188611 131.83429,40.308611 133.21429,40.308611 C 134.59429,40.308611 135.71429,39.188611 135.71429,37.808611" />
    <path
       id="path153"
       style="fill:none;stroke:#000000;stroke-width:1.25;stroke-linecap:butt;stroke-linejoin:miter;stroke-miterlimit:10;stroke-dasharray:none;stroke-opacity:1"
       d="M 135.71429,37.808611 L 145.71429,37.808611" />
    <path
       id="path155"
       style="fill:#cccccc;fill-opacity:1;fill-rule:nonzero;stroke:none"
       d="M 186.96429,84.058611 L 199.46429,84.058611 L 199.46429,75.308611 L 199.46429,75.308611 C 199.46429,71.857361 196.66554,69.058611 193.21429,69.058611 C 189.76304,69.058611 186.96429,71.857361 186.96429,75.308611" />
    <path
       id="path157"
       style="fill:none;stroke:#000000;stroke-width:1.25;stroke-linecap:butt;stroke-linejoin:miter;stroke-miterlimit:10;stroke-dasharray:none;stroke-opacity:1"
       d="M 186.96429,84.058611 L 199.46429,84.058611 L 199.46429,75.308611 L 199.46429,75.308611 C 199.46429,71.857361 196.66554,69.058611 193.21429,69.058611 C 189.76304,69.058611 186.96429,71.857361 186.96429,75.308611 L 186.96429,84.058611 z" />
    <path
       id="path159"
       style="fill:#000000;fill-opacity:1;fill-rule:nonzero;stroke:none"
       d="M 150.71429,37.808611 C 150.71429,36.428611 149.59429,35.308611 148.21429,35.308611 C 146.83429,35.308611 145.71429,36.428611 145.71429,37.808611 C 145.71429,39.188611 146.83429,40.308611 148.21429,40.308611 C 149.59429,40.308611 150.71429,39.188611 150.71429,37.808611" />
    <path
       id="path161"
       style="fill:#cccccc;fill-opacity:1;fill-rule:nonzero;stroke:none"
       d="M 186.96429,25.308611 L 199.46429,25.308611 L 199.46429,16.558611 L 199.46429,16.558611 C 199.46429,13.107361 196.66554,10.308611 193.21429,10.308611 C 189.76304,10.308611 186.96429,13.107361 186.96429,16.558611" />
    <path
       id="path163"
       style="fill:none;stroke:#000000;stroke-width:1.25;stroke-linecap:butt;stroke-linejoin:miter;stroke-miterlimit:10;stroke-dasharray:none;stroke-opacity:1"
       d="M 186.96429,25.308611 L 199.46429,25.308611 L 199.46429,16.558611 L 199.46429,16.558611 C 199.46429,13.107361 196.66554,10.308611 193.21429,10.308611 C 189.76304,10.308611 186.96429,13.107361 186.96429,16.558611 L 186.96429,25.308611 z" />
    <path
       id="path165"
       style="fill:none;stroke:#000000;stroke-width:1.25;stroke-linecap:butt;stroke-linejoin:miter;stroke-miterlimit:10;stroke-dasharray:none;stroke-opacity:1"
       d="M 117.58929,85.308611 L 101.33929,85.308611 L 101.33929,102.80861 L 117.58929,102.80861 C 122.42179,102.80861 126.33929,98.891111 126.33929,94.058611 C 126.33929,89.226111 122.42179,85.308611 117.58929,85.308611 z" />
    <path
       id="path167"
       style="fill:none;stroke:#000000;stroke-width:1.05473387;stroke-linecap:butt;stroke-linejoin:miter;stroke-miterlimit:10;stroke-dasharray:none;stroke-opacity:1"
       d="M 26.366367,18.960978 L 26.366367,49.024307 L 55.673537,49.024307 L 55.673537,18.960978 L 26.366367,18.960978 z" />
    <path
       id="path205"
       style="fill:none;stroke:#000000;stroke-width:1.05473387;stroke-linecap:butt;stroke-linejoin:miter;stroke-miterlimit:10;stroke-dasharray:none;stroke-opacity:1"
       d="M 27.254463,81.592915 L 27.254463,111.65624 L 56.561633,111.65624 L 56.561633,81.592915 L 27.254463,81.592915 z" />
    <path
       id="path243"
       style="fill:#000000;fill-opacity:1;fill-rule:nonzero;stroke:none"
       d="M 153.21429,94.058611 C 153.21429,92.678611 152.09429,91.558611 150.71429,91.558611 C 149.33429,91.558611 148.21429,92.678611 148.21429,94.058611 C 148.21429,95.438611 149.33429,96.558611 150.71429,96.558611 C 152.09429,96.558611 153.21429,95.438611 153.21429,94.058611" />
    <path
       id="path245"
       style="fill:none;stroke:#000000;stroke-width:1.25;stroke-linecap:butt;stroke-linejoin:miter;stroke-miterlimit:10;stroke-dasharray:none;stroke-opacity:1"
       d="M 121.33929,29.058611 L 105.08929,29.058611 L 105.08929,46.558611 L 121.33929,46.558611 C 126.17179,46.558611 130.08929,42.641111 130.08929,37.808611 C 130.08929,32.976111 126.17179,29.058611 121.33929,29.058611 z" />
    <text
       xml:space="preserve"
       style="font-size:8px;font-style:normal;font-weight:normal;writing-mode:lr-tb;fill:#000000;fill-opacity:1;stroke:none;stroke-width:1px;stroke-linecap:butt;stroke-linejoin:miter;stroke-opacity:1;font-family:Bitstream Vera Sans"
       x="38.131279"
       y="38.305141"
       id="text2944"><tspan
         sodipodi:role="line"
         id="tspan2946"
         x="38.131279"
         y="38.305141"
         style="font-size:12px;font-style:normal;font-variant:normal;font-weight:normal;font-stretch:normal;font-family:Arial;-inkscape-font-specification:Arial">1</tspan></text>
    <text
       xml:space="preserve"
       style="font-size:8px;font-style:normal;font-weight:normal;writing-mode:lr-tb;fill:#000000;fill-opacity:1;stroke:none;stroke-width:1px;stroke-linecap:butt;stroke-linejoin:miter;stroke-opacity:1;font-family:Bitstream Vera Sans"
       x="39.019375"
       y="100.93708"
       id="text2948"><tspan
         sodipodi:role="line"
         id="tspan2950"
         x="39.019375"
         y="100.93708"
         style="font-size:12px;font-style:normal;font-variant:normal;font-weight:normal;font-stretch:normal;font-family:Arial;-inkscape-font-specification:Arial">1</tspan></text>
  </g>
</svg>
