<?xml version="1.0" encoding="UTF-8" standalone="no"?>
<!-- Created with Inkscape (http://www.inkscape.org/) -->
<svg
   xmlns:svg="http://www.w3.org/2000/svg"
   xmlns="http://www.w3.org/2000/svg"
   version="1.0"
   width="93.765259"
   height="120"
   id="svg2">
  <defs
     id="defs4" />
  <g
     transform="matrix(0.7356821,0,0,0.7356821,-6.5462977,1.0813382)"
     id="layer1">
    <path
       d="M 25,0.048468213 L 25,0.17521499 C 25,160.17521 25,160 25,160"
       style="fill:none;fill-rule:evenodd;stroke:#000000;stroke-width:3;stroke-linecap:butt;stroke-linejoin:miter;stroke-miterlimit:4;stroke-dasharray:none;stroke-opacity:1"
       id="path2385" />
    <path
       d="M 120,0.030684555 C 120,35.055374 120,125.11886 120,160.14356"
       style="fill:none;fill-rule:evenodd;stroke:#000000;stroke-width:3.00105786;stroke-linecap:butt;stroke-linejoin:miter;stroke-miterlimit:4;stroke-dasharray:none;stroke-opacity:1"
       id="path3247" />
    <path
       d="M 121.16697,1.2047756 L 121.16697,1.2047756 C 23.619146,1.2047756 23.501959,1.2047756 23.501959,1.2047756"
       style="fill:none;fill-rule:evenodd;stroke:#000000;stroke-width:2.34244871;stroke-linecap:butt;stroke-linejoin:miter;stroke-miterlimit:4;stroke-dasharray:none;stroke-opacity:1"
       id="path3249" />
    <path
       d="M 121.02848,158.95921 L 121.02848,158.95921 C 23.316139,158.95921 23.493133,158.92381 23.493133,158.92381"
       style="fill:none;fill-rule:evenodd;stroke:#000000;stroke-width:2.34442306;stroke-linecap:butt;stroke-linejoin:miter;stroke-miterlimit:4;stroke-dasharray:none;stroke-opacity:1"
       id="path3251" />
    <path
       d="M 10.479989,26.251134 L 25.127201,26.251134"
       style="fill:none;fill-rule:evenodd;stroke:#000000;stroke-width:1.98265469px;stroke-linecap:butt;stroke-linejoin:miter;stroke-opacity:1"
       id="path3253" />
    <path
       d="M 51.609343,15.755481 L 93.711852,15.755481"
       style="fill:none;fill-opacity:0.75;fill-rule:evenodd;stroke:#000000;stroke-width:10.1332674;stroke-linecap:round;stroke-linejoin:round;stroke-miterlimit:4;stroke-dasharray:none;stroke-opacity:1"
       id="path7119" />
    <path
       d="M 102.1802,67.802309 L 102.1802,25.699804"
       style="fill:none;fill-opacity:0.75;fill-rule:evenodd;stroke:#000000;stroke-width:10.1332674;stroke-linecap:round;stroke-linejoin:round;stroke-miterlimit:4;stroke-dasharray:none;stroke-opacity:1"
       id="path3211" />
    <path
       d="M 42.550609,68.392701 L 42.550609,26.290196"
       style="fill:none;fill-opacity:0.75;fill-rule:evenodd;stroke:#000000;stroke-width:10.1332674;stroke-linecap:round;stroke-linejoin:round;stroke-miterlimit:4;stroke-dasharray:none;stroke-opacity:1"
       id="path3213" />
    <path
       d="M 41.960217,135.69737 L 41.960217,93.594872"
       style="fill:none;fill-opacity:0.75;fill-rule:evenodd;stroke:#000000;stroke-width:10.1332674;stroke-linecap:round;stroke-linejoin:round;stroke-miterlimit:4;stroke-dasharray:none;stroke-opacity:1"
       id="path3215" />
    <path
       d="M 100.40902,136.28777 L 100.40902,94.185266"
       style="fill:none;fill-opacity:0.75;fill-rule:evenodd;stroke:#000000;stroke-width:10.1332674;stroke-linecap:round;stroke-linejoin:round;stroke-miterlimit:4;stroke-dasharray:none;stroke-opacity:1"
       id="path3217" />
    <path
       d="M 51.609343,80.993788 L 93.711852,80.993788"
       style="fill:none;fill-opacity:0.75;fill-rule:evenodd;stroke:#000000;stroke-width:10.1332674;stroke-linecap:round;stroke-linejoin:round;stroke-miterlimit:4;stroke-dasharray:none;stroke-opacity:1"
       id="path3219" />
    <path
       d="M 50.428559,146.52729 L 92.531068,146.52729"
       style="fill:none;fill-opacity:0.75;fill-rule:evenodd;stroke:#000000;stroke-width:10.1332674;stroke-linecap:round;stroke-linejoin:round;stroke-miterlimit:4;stroke-dasharray:none;stroke-opacity:1"
       id="path3221" />
    <path
       d="M 11.020934,62.334639 L 25.668147,62.334639"
       style="fill:none;fill-rule:evenodd;stroke:#000000;stroke-width:1.98265469px;stroke-linecap:butt;stroke-linejoin:miter;stroke-opacity:1"
       id="path3223" />
    <path
       d="M 11.377932,99.529334 L 26.025145,99.529334"
       style="fill:none;fill-rule:evenodd;stroke:#000000;stroke-width:1.98265469px;stroke-linecap:butt;stroke-linejoin:miter;stroke-opacity:1"
       id="path3225" />
    <path
       d="M 10.416726,135.66684 L 25.063939,135.66684"
       style="fill:none;fill-rule:evenodd;stroke:#000000;stroke-width:1.98265469px;stroke-linecap:butt;stroke-linejoin:miter;stroke-opacity:1"
       id="path3227" />
    <path
       d="M 118.63222,38.317311 L 133.27943,38.317311"
       style="fill:none;fill-rule:evenodd;stroke:#000000;stroke-width:1.98265469px;stroke-linecap:butt;stroke-linejoin:miter;stroke-opacity:1"
       id="path3229" />
    <path
       d="M 118.63222,79.095794 L 133.27943,79.095794"
       style="fill:none;fill-rule:evenodd;stroke:#000000;stroke-width:1.98265469px;stroke-linecap:butt;stroke-linejoin:miter;stroke-opacity:1"
       id="path3231" />
    <path
       d="M 118.63222,126.67069 L 133.27943,126.67069"
       style="fill:none;fill-rule:evenodd;stroke:#000000;stroke-width:1.98265469px;stroke-linecap:butt;stroke-linejoin:miter;stroke-opacity:1"
       id="path3235" />
    <path
       d="M 11.29286,47.03075 C 11.971743,47.124429 13.708758,47.125824 14.767586,46.59641 C 15.630993,46.164706 16.075078,45.725493 16.93929,45.293387 C 17.781522,44.872272 18.7247,44.859047 19.762505,44.859047 C 20.703577,44.859047 21.644648,44.859047 22.58572,44.859047"
       transform="matrix(1.3592828,0,0,1.3592828,8.8982696,-1.4698444)"
       style="fill:none;fill-rule:evenodd;stroke:#000000;stroke-width:1px;stroke-linecap:butt;stroke-linejoin:miter;stroke-opacity:1"
       id="path3260" />
    <path
       d="M 11.727201,74.177049 C 12.214496,74.177049 14.055335,74.177049 15.201927,74.177049 C 16.553789,74.177049 16.966885,74.611389 18.242312,74.611389 C 19.129939,74.611389 20.287355,75.525326 21.065527,75.914412 C 21.764933,76.264115 21.717039,76.771758 21.717039,77.651775"
       transform="matrix(1.3592828,0,0,1.3592828,8.8982696,-1.4698444)"
       style="fill:none;fill-rule:evenodd;stroke:#000000;stroke-width:1px;stroke-linecap:butt;stroke-linejoin:miter;stroke-opacity:1"
       id="path3262" />
    <path
       d="M 11.29286,101.32335 C 11.934759,101.01579 13.703802,101.00863 14.767586,101.54052 C 16.017271,102.16536 16.673717,102.57797 17.807972,103.71222 C 18.826313,104.73056 19.724119,105.61557 20.414016,106.53544 C 21.248548,107.64815 22.005728,108.41714 23.020061,108.92431 C 24.083442,109.456 24.882394,109.55277 25.843276,109.79299 C 26.534944,109.96591 27.513836,109.79299 28.23215,109.79299"
       transform="matrix(1.3592828,0,0,1.3592828,8.8982696,-1.4698444)"
       style="fill:none;fill-rule:evenodd;stroke:#000000;stroke-width:1px;stroke-linecap:butt;stroke-linejoin:miter;stroke-opacity:1"
       id="path3272" />
    <path
       d="M 82.090406,29.439949 C 81.421276,29.303654 80.026966,29.494402 79.267191,29.87429 C 78.41988,30.297946 77.472747,30.445756 76.878316,30.742972 C 75.636607,31.363826 75.344594,31.629693 74.706613,32.480335 C 74.283585,33.044372 73.059345,33.738309 72.534909,34.000527 C 71.809314,34.363325 70.794942,34.217698 69.928864,34.217698"
       transform="matrix(1.3592828,0,0,1.3592828,8.8982696,-1.4698444)"
       style="fill:none;fill-rule:evenodd;stroke:#000000;stroke-width:1px;stroke-linecap:butt;stroke-linejoin:miter;stroke-opacity:1"
       id="path3324" />
    <path
       d="M 82.307576,59.192292 C 82.027717,59.332222 79.848284,59.192292 78.83285,59.192292 C 77.602218,59.192292 76.371586,59.192292 75.140953,59.192292 C 74.083004,59.192292 73.229752,59.995848 72.100568,60.278144 C 71.06656,60.536646 69.958192,60.495314 68.843012,60.495314 C 67.75716,60.495314 66.671308,60.495314 65.585456,60.495314 C 64.933945,60.495314 64.282434,60.495314 63.630923,60.495314"
       transform="matrix(1.3592828,0,0,1.3592828,8.8982696,-1.4698444)"
       style="fill:none;fill-rule:evenodd;stroke:#000000;stroke-width:1px;stroke-linecap:butt;stroke-linejoin:miter;stroke-opacity:1"
       id="path3326" />
    <path
       d="M 82.741917,94.156724 C 82.036887,94.156724 80.955526,93.818712 79.701531,93.505213 C 78.694594,93.253479 78.193485,92.859775 77.312657,92.419361 C 76.591856,92.058961 75.656742,91.414957 75.140953,90.899168 C 74.298661,90.056876 73.627632,89.603018 72.96925,88.944635 C 72.214028,88.189413 71.290364,88.304819 70.146035,88.075953 C 69.621256,87.970998 68.947815,88.075953 68.408671,88.075953"
       transform="matrix(1.3592828,0,0,1.3592828,8.8982696,-1.4698444)"
       style="fill:none;fill-rule:evenodd;stroke:#000000;stroke-width:1px;stroke-linecap:butt;stroke-linejoin:miter;stroke-opacity:1"
       id="path3328" />
    <path
       d="M 9.9898377,20.101623 C 10.477133,20.101623 12.317972,20.101623 13.464564,20.101623 C 14.743368,20.101623 15.359158,19.154326 16.070609,18.7986 C 17.1492,18.259305 17.913372,16.955837 18.676653,16.192556 C 19.219579,15.64963 19.87109,15.215289 20.414016,14.672363 C 21.119036,13.967343 22.119885,13.377214 23.020061,13.15217 C 23.758815,12.967482 24.582581,12.71783 25.843276,12.71783 C 27.061716,12.71783 27.513787,13.15217 28.666491,13.15217 C 28.811271,13.15217 28.956051,13.15217 29.100832,13.15217"
       transform="matrix(1.3592828,0,0,1.3592828,8.8982696,-1.4698444)"
       style="fill:none;fill-rule:evenodd;stroke:#000000;stroke-width:1px;stroke-linecap:butt;stroke-linejoin:miter;stroke-opacity:1"
       id="path3340" />
  </g>
</svg>
