<?xml version="1.0" encoding="UTF-8" standalone="no"?>
<!-- Created with Inkscape (http://www.inkscape.org/) -->
<svg
   xmlns:svg="http://www.w3.org/2000/svg"
   xmlns="http://www.w3.org/2000/svg"
   xmlns:sodipodi="http://sodipodi.sourceforge.net/DTD/sodipodi-0.dtd"
   xmlns:inkscape="http://www.inkscape.org/namespaces/inkscape"
   version="1.0"
   width="91.358421"
   height="50"
   id="svg2">
  <defs
     id="defs4">
    <inkscape:perspective
       id="perspective13"
       inkscape:persp3d-origin="73.099998 : 26.666667 : 1"
       inkscape:vp_z="146.2 : 40 : 1"
       inkscape:vp_y="0 : 1000 : 0"
       inkscape:vp_x="0 : 40 : 1"
       sodipodi:type="inkscape:persp3d" />
  </defs>
  <g
     transform="matrix(0.625,0,0,0.625,-11.25,-3.125)"
     id="layer1">
    <path
       d="M 140,45 C 165.6,45 162,45 162,45"
       style="fill:none;stroke:#000000;stroke-width:4;stroke-linecap:butt;stroke-linejoin:miter;stroke-opacity:1"
       id="path3059" />
    <path
       d="M 43.135231,18.946618 L 19.135231,18.946618"
       style="fill:none;stroke:#000000;stroke-width:4;stroke-linecap:butt;stroke-linejoin:miter;stroke-opacity:1"
       id="path3061" />
    <path
       d="M 43.405693,71.053383 L 17.405693,71.053383"
       style="fill:none;stroke:#000000;stroke-width:3.99999976;stroke-linecap:butt;stroke-linejoin:miter;stroke-opacity:1"
       id="path3944" />
    <path
       d="M 42,5 L 42,7.8571428 L 42,82.142858 L 42,85 L 44.857142,85 L 82.95238,85 C 105.4882,85 122.95238,66.99991 122.95238,45 C 122.95238,23.00009 105.4882,5.0000004 82.95238,5 C 82.95238,5 82.95238,5 44.857142,5 L 42,5 z M 47.714286,10.714286 C 63.668528,10.714286 73.836736,10.714286 78.190476,10.714286 C 80.571428,10.714286 81.761904,10.714286 82.357142,10.714286 C 82.654762,10.714286 82.818454,10.714286 82.892858,10.714286 C 82.930058,10.714286 82.943086,10.714286 82.95238,10.714286 C 102.47371,10.714286 116.28571,25.994196 116.28571,45 C 116.28571,64.005804 101.52132,79.285714 82,79.285714 L 47.714286,79.285714 L 47.714286,10.714286 z "
       style="font-size:medium;font-style:normal;font-variant:normal;font-weight:normal;font-stretch:normal;text-indent:0;text-align:start;text-decoration:none;line-height:normal;letter-spacing:normal;word-spacing:normal;text-transform:none;direction:ltr;block-progression:tb;writing-mode:lr-tb;text-anchor:start;fill:#000000;fill-opacity:1;stroke:none;stroke-width:3;marker:none;visibility:visible;display:inline;overflow:visible;enable-background:accumulate;font-family:Bitstream Vera Sans"
       id="path2884" />
    <path
       d="M 79,25 C 79,27.209139 77.209139,29 75,29 C 72.790861,29 71,27.209139 71,25 C 71,22.790861 72.790861,21 75,21 C 77.209139,21 79,22.790861 79,25 z "
       transform="matrix(2,0,0,2,-18,-5)"
       style="fill:none;fill-opacity:1;stroke:#000000;stroke-width:3;stroke-linejoin:miter;marker:none;stroke-opacity:1;visibility:visible;display:inline;overflow:visible;enable-background:accumulate"
       id="path4008" />
    <path
       d="M 42.971533,45.22063 L 18.971533,45.22063"
       style="fill:none;stroke:#000000;stroke-width:4;stroke-linecap:butt;stroke-linejoin:miter;stroke-opacity:1"
       id="path2594" />
  </g>
</svg>
